<svg width="393" height="524" viewBox="0 0 393 524" fill="none" xmlns="http://www.w3.org/2000/svg">
<path d="M147 147L142.091 150.039L141.914 144.268L147 147ZM142.496 147.139L142.527 147.638C105.123 149.946 75.5 181.014 75.5 219H75H74.5C74.5 180.482 104.537 148.98 142.466 146.64L142.496 147.139Z" fill="white"/>
<path d="M248 377L252.909 373.961L253.086 379.732L248 377ZM252.504 376.861L252.473 376.362C289.877 374.054 319.5 342.986 319.5 305H320H320.5C320.5 343.518 290.463 375.02 252.534 377.36L252.504 376.861Z" fill="white"/>
<path d="M320 219L316.961 214.091L322.732 213.914L320 219ZM319.861 214.496L319.362 214.527C317.054 177.123 285.986 147.5 248 147.5V147V146.5C286.518 146.5 318.02 176.537 320.36 214.466L319.861 214.496Z" fill="white"/>
<path d="M75 305L78.0391 309.909L72.2684 310.086L75 305ZM75.1386 309.504L75.6376 309.473C77.9461 346.877 109.014 376.5 147 376.5V377V377.5C108.482 377.5 76.9803 347.463 74.6395 309.534L75.1386 309.504Z" fill="white"/>
</svg>
