<svg width="393" height="524" viewBox="0 0 393 524" fill="none" xmlns="http://www.w3.org/2000/svg">
<path d="M188.138 147.18C185.948 147.18 184.373 146.085 184.253 143.985H185.603C185.678 145.455 186.833 146.07 188.168 146.07C189.833 146.07 190.763 145.35 190.763 144.21C190.763 143.31 190.268 142.86 189.278 142.59L186.983 141.975C185.588 141.6 184.658 140.805 184.658 139.155C184.658 137.46 186.143 136.29 188.198 136.29C190.268 136.29 191.768 137.505 191.813 139.455H190.478C190.388 138.12 189.428 137.4 188.198 137.4C186.878 137.4 185.933 138.15 185.933 139.17C185.933 140.055 186.338 140.535 187.403 140.82L189.713 141.435C191.123 141.81 192.038 142.575 192.038 144.15C192.038 146.025 190.628 147.18 188.138 147.18ZM194.647 147V139.38H195.892V147H194.647ZM194.512 137.82V136.305H196.027V137.82H194.512ZM201.259 147.135C199.774 147.135 199.099 146.265 199.099 144.93V140.46H198.139V139.455H198.259C198.964 139.455 199.249 139.26 199.249 138.525V137.37H200.344V139.38H202.459V140.46H200.344V144.69C200.344 145.53 200.629 146.01 201.394 146.01C201.709 146.01 201.979 145.965 202.324 145.785L202.564 146.82C202.189 147 201.679 147.135 201.259 147.135ZM207.464 147.135C205.484 147.135 204.119 145.8 204.119 143.19C204.119 140.655 205.409 139.245 207.494 139.245C209.444 139.245 210.689 140.46 210.689 143.01C210.689 143.16 210.689 143.325 210.674 143.49H205.394C205.409 144.885 205.994 146.07 207.464 146.07C208.604 146.07 209.174 145.485 209.279 144.84H210.554C210.419 146.355 209.144 147.135 207.464 147.135ZM209.204 142.5C209.309 142.5 209.399 142.44 209.399 142.29C209.399 140.985 208.649 140.31 207.494 140.31C206.249 140.31 205.559 141.075 205.424 142.5H209.204ZM169.254 267V256.47H172.689C175.029 256.47 176.439 257.46 176.439 259.68C176.439 261.81 174.969 262.86 172.689 262.86H170.544V267H169.254ZM172.689 261.72C174.339 261.72 175.044 261.015 175.044 259.68C175.044 258.285 174.324 257.61 172.689 257.61H170.544V261.72H172.689ZM180.485 267.135C179.12 267.135 178.085 266.415 178.085 265.005C178.085 263.505 179.165 262.845 180.77 262.545L181.79 262.365C182.69 262.2 182.99 262.05 182.99 261.6C182.99 260.745 182.315 260.28 181.28 260.28C180.395 260.28 179.615 260.625 179.6 261.57H178.325C178.4 259.98 179.63 259.245 181.28 259.245C182.99 259.245 184.235 259.995 184.235 261.81V267H183.065V266.145C183.065 266.04 183.005 265.995 182.945 265.995C182.885 265.995 182.84 266.025 182.75 266.13C182.225 266.73 181.415 267.135 180.485 267.135ZM180.665 266.1C181.925 266.1 183.05 265.305 183.05 263.91V262.98C182.855 263.19 182.435 263.265 181.835 263.37L181.13 263.505C179.81 263.76 179.345 264.21 179.345 264.975C179.345 265.635 179.795 266.1 180.665 266.1ZM189.454 267.135C187.969 267.135 187.294 266.265 187.294 264.93V260.46H186.334V259.455H186.454C187.159 259.455 187.444 259.26 187.444 258.525V257.37H188.539V259.38H190.654V260.46H188.539V264.69C188.539 265.53 188.824 266.01 189.589 266.01C189.904 266.01 190.174 265.965 190.519 265.785L190.759 266.82C190.384 267 189.874 267.135 189.454 267.135ZM192.985 267V259.38H194.23V267H192.985ZM192.85 257.82V256.305H194.365V257.82H192.85ZM200.122 267.135C198.142 267.135 196.777 265.8 196.777 263.19C196.777 260.655 198.067 259.245 200.152 259.245C202.102 259.245 203.347 260.46 203.347 263.01C203.347 263.16 203.347 263.325 203.332 263.49H198.052C198.067 264.885 198.652 266.07 200.122 266.07C201.262 266.07 201.832 265.485 201.937 264.84H203.212C203.077 266.355 201.802 267.135 200.122 267.135ZM201.862 262.5C201.967 262.5 202.057 262.44 202.057 262.29C202.057 260.985 201.307 260.31 200.152 260.31C198.907 260.31 198.217 261.075 198.082 262.5H201.862ZM205.94 267V259.38H207.11V260.355C207.11 260.445 207.155 260.505 207.23 260.505C207.305 260.505 207.35 260.445 207.395 260.385C207.875 259.74 208.52 259.245 209.57 259.245C211.22 259.245 212.045 260.295 212.045 262.065V267H210.8V262.305C210.8 260.955 210.245 260.34 209.12 260.34C207.98 260.34 207.185 261.3 207.185 262.725V267H205.94ZM217.299 267.135C215.814 267.135 215.139 266.265 215.139 264.93V260.46H214.179V259.455H214.299C215.004 259.455 215.289 259.26 215.289 258.525V257.37H216.384V259.38H218.499V260.46H216.384V264.69C216.384 265.53 216.669 266.01 217.434 266.01C217.749 266.01 218.019 265.965 218.364 265.785L218.604 266.82C218.229 267 217.719 267.135 217.299 267.135ZM223.35 267.135C221.4 267.135 220.395 266.205 220.395 264.84H221.655C221.67 265.53 222.225 266.13 223.38 266.13C224.49 266.13 225.045 265.59 225.045 264.84C225.045 264.24 224.64 263.94 223.875 263.79L222.555 263.535C221.25 263.28 220.53 262.605 220.53 261.525C220.53 260.13 221.715 259.245 223.29 259.245C224.835 259.245 226.11 259.905 226.11 261.42H224.895C224.895 260.685 224.205 260.25 223.305 260.25C222.39 260.25 221.745 260.715 221.745 261.435C221.745 261.915 222.075 262.275 222.93 262.44L224.25 262.695C225.555 262.95 226.26 263.505 226.26 264.735C226.26 266.16 225.195 267.135 223.35 267.135ZM172.345 387.18C170.155 387.18 168.58 386.085 168.46 383.985H169.81C169.885 385.455 171.04 386.07 172.375 386.07C174.04 386.07 174.97 385.35 174.97 384.21C174.97 383.31 174.475 382.86 173.485 382.59L171.19 381.975C169.795 381.6 168.865 380.805 168.865 379.155C168.865 377.46 170.35 376.29 172.405 376.29C174.475 376.29 175.975 377.505 176.02 379.455H174.685C174.595 378.12 173.635 377.4 172.405 377.4C171.085 377.4 170.14 378.15 170.14 379.17C170.14 380.055 170.545 380.535 171.61 380.82L173.92 381.435C175.33 381.81 176.245 382.575 176.245 384.15C176.245 386.025 174.835 387.18 172.345 387.18ZM178.855 389.55V379.38H180.025V380.16C180.025 380.25 180.07 380.31 180.145 380.31C180.22 380.31 180.25 380.265 180.31 380.205C180.895 379.545 181.6 379.245 182.5 379.245C184.06 379.245 185.515 380.46 185.515 383.19C185.515 385.92 184.06 387.135 182.5 387.135C181.555 387.135 180.925 386.82 180.385 386.25C180.325 386.19 180.295 386.145 180.22 386.145C180.145 386.145 180.1 386.205 180.1 386.295V389.55H178.855ZM182.11 386.07C183.61 386.07 184.195 384.87 184.195 383.19C184.195 381.51 183.61 380.31 182.11 380.31C180.61 380.31 180.025 381.51 180.025 383.19C180.025 384.87 180.61 386.07 182.11 386.07ZM191.003 387.135C188.888 387.135 187.598 385.71 187.598 383.19C187.598 380.67 188.888 379.245 191.003 379.245C193.118 379.245 194.408 380.685 194.408 383.19C194.408 385.71 193.118 387.135 191.003 387.135ZM191.003 386.07C192.503 386.07 193.088 384.87 193.088 383.19C193.088 381.51 192.503 380.31 191.003 380.31C189.503 380.31 188.918 381.51 188.918 383.19C188.918 384.87 189.503 386.07 191.003 386.07ZM196.967 387V379.38H198.137V380.355C198.137 380.445 198.182 380.505 198.257 380.505C198.332 380.505 198.377 380.445 198.422 380.385C198.902 379.74 199.547 379.245 200.597 379.245C202.247 379.245 203.072 380.295 203.072 382.065V387H201.827V382.305C201.827 380.955 201.272 380.34 200.147 380.34C199.007 380.34 198.212 381.3 198.212 382.725V387H196.967ZM208.55 387.135C206.6 387.135 205.595 386.205 205.595 384.84H206.855C206.87 385.53 207.425 386.13 208.58 386.13C209.69 386.13 210.245 385.59 210.245 384.84C210.245 384.24 209.84 383.94 209.075 383.79L207.755 383.535C206.45 383.28 205.73 382.605 205.73 381.525C205.73 380.13 206.915 379.245 208.49 379.245C210.035 379.245 211.31 379.905 211.31 381.42H210.095C210.095 380.685 209.405 380.25 208.505 380.25C207.59 380.25 206.945 380.715 206.945 381.435C206.945 381.915 207.275 382.275 208.13 382.44L209.45 382.695C210.755 382.95 211.46 383.505 211.46 384.735C211.46 386.16 210.395 387.135 208.55 387.135ZM216.992 387.135C214.877 387.135 213.587 385.71 213.587 383.19C213.587 380.67 214.877 379.245 216.992 379.245C219.107 379.245 220.397 380.685 220.397 383.19C220.397 385.71 219.107 387.135 216.992 387.135ZM216.992 386.07C218.492 386.07 219.077 384.87 219.077 383.19C219.077 381.51 218.492 380.31 216.992 380.31C215.492 380.31 214.907 381.51 214.907 383.19C214.907 384.87 215.492 386.07 216.992 386.07ZM222.956 387V379.38H224.126V380.46C224.126 380.55 224.171 380.61 224.246 380.61C224.321 380.61 224.351 380.565 224.411 380.475C224.876 379.755 225.611 379.245 226.376 379.245C226.631 379.245 226.841 379.275 227.036 379.32L227.006 380.58C226.781 380.535 226.421 380.52 226.241 380.52C225.056 380.52 224.201 381.3 224.201 382.74V387H222.956Z" fill="#8B8784"/>
<path d="M57.6167 267V256.47H64.3967V257.625H58.9067V261.045H63.9617V262.17H58.9067V265.845H64.6367V267H57.6167ZM67.2788 267V256.11H68.5238V267H67.2788ZM71.6106 267V259.38H72.8556V267H71.6106ZM71.4756 257.82V256.305H72.9906V257.82H71.4756ZM75.1028 267L77.7278 263.19L75.1328 259.38H76.6028L78.3428 262.08C78.3878 262.14 78.4178 262.17 78.4778 262.17C78.5378 262.17 78.5678 262.14 78.6128 262.08L80.4428 259.38H81.8528L79.2428 263.19L81.8378 267H80.3828L78.5978 264.285C78.5528 264.225 78.5228 264.195 78.4628 264.195C78.4028 264.195 78.3728 264.225 78.3278 264.285L76.5128 267H75.1028ZM84.1122 267V259.38H85.3572V267H84.1122ZM83.9772 257.82V256.305H85.4922V257.82H83.9772ZM88.4294 267V259.38H89.5994V260.46C89.5994 260.55 89.6444 260.61 89.7194 260.61C89.7944 260.61 89.8244 260.565 89.8844 260.475C90.3494 259.755 91.0844 259.245 91.8494 259.245C92.1044 259.245 92.3144 259.275 92.5094 259.32L92.4794 260.58C92.2544 260.535 91.8944 260.52 91.7144 260.52C90.5294 260.52 89.6744 261.3 89.6744 262.74V267H88.4294Z" fill="#8B8784"/>
<path d="M303.905 267V257.625H300.485V256.47H308.63V257.625H305.195V267H303.905ZM310.142 267V259.38H311.312V260.46C311.312 260.55 311.357 260.61 311.432 260.61C311.507 260.61 311.537 260.565 311.597 260.475C312.062 259.755 312.797 259.245 313.562 259.245C313.817 259.245 314.027 259.275 314.222 259.32L314.192 260.58C313.967 260.535 313.607 260.52 313.427 260.52C312.242 260.52 311.387 261.3 311.387 262.74V267H310.142ZM316.261 267V259.38H317.506V267H316.261ZM316.126 257.82V256.305H317.641V257.82H316.126ZM322.543 267.135C321.178 267.135 320.143 266.415 320.143 265.005C320.143 263.505 321.223 262.845 322.828 262.545L323.848 262.365C324.748 262.2 325.048 262.05 325.048 261.6C325.048 260.745 324.373 260.28 323.338 260.28C322.453 260.28 321.673 260.625 321.658 261.57H320.383C320.458 259.98 321.688 259.245 323.338 259.245C325.048 259.245 326.293 259.995 326.293 261.81V267H325.123V266.145C325.123 266.04 325.063 265.995 325.003 265.995C324.943 265.995 324.898 266.025 324.808 266.13C324.283 266.73 323.473 267.135 322.543 267.135ZM322.723 266.1C323.983 266.1 325.108 265.305 325.108 263.91V262.98C324.913 263.19 324.493 263.265 323.893 263.37L323.188 263.505C321.868 263.76 321.403 264.21 321.403 264.975C321.403 265.635 321.853 266.1 322.723 266.1ZM329.217 267V256.11H330.462V267H329.217ZM336.069 267.135C334.119 267.135 333.114 266.205 333.114 264.84H334.374C334.389 265.53 334.944 266.13 336.099 266.13C337.209 266.13 337.764 265.59 337.764 264.84C337.764 264.24 337.359 263.94 336.594 263.79L335.274 263.535C333.969 263.28 333.249 262.605 333.249 261.525C333.249 260.13 334.434 259.245 336.009 259.245C337.554 259.245 338.829 259.905 338.829 261.42H337.614C337.614 260.685 336.924 260.25 336.024 260.25C335.109 260.25 334.464 260.715 334.464 261.435C334.464 261.915 334.794 262.275 335.649 262.44L336.969 262.695C338.274 262.95 338.979 263.505 338.979 264.735C338.979 266.16 337.914 267.135 336.069 267.135Z" fill="#8B8784"/>
<path d="M147 147L142.091 150.039L141.914 144.268L147 147ZM142.496 147.139L142.527 147.638C105.123 149.946 75.5 181.014 75.5 219H75H74.5C74.5 180.482 104.537 148.98 142.466 146.64L142.496 147.139Z" fill="#8B8784"/>
<path d="M248 377L252.909 373.961L253.086 379.732L248 377ZM252.504 376.861L252.473 376.362C289.877 374.054 319.5 342.986 319.5 305H320H320.5C320.5 343.518 290.463 375.02 252.534 377.36L252.504 376.861Z" fill="#8B8784"/>
<path d="M320 219L316.961 214.091L322.732 213.914L320 219ZM319.861 214.496L319.362 214.527C317.054 177.123 285.986 147.5 248 147.5V147V146.5C286.518 146.5 318.02 176.537 320.36 214.466L319.861 214.496Z" fill="#8B8784"/>
<path d="M75 305L78.0391 309.909L72.2684 310.086L75 305ZM75.1386 309.504L75.6376 309.473C77.9461 346.877 109.014 376.5 147 376.5V377V377.5C108.482 377.5 76.9803 347.463 74.6395 309.534L75.1386 309.504Z" fill="#8B8784"/>
</svg>
