<svg width="253" height="308" viewBox="0 0 253 308" fill="none" xmlns="http://www.w3.org/2000/svg">
<path d="M72.5 158.5L67.5911 155.461L67.4136 161.232L72.5 158.5ZM67.9965 158.361L68.0273 157.862C30.6227 155.554 1 124.486 1 86.5H0.5H0C0 125.018 30.037 156.52 67.9657 158.86L67.9965 158.361ZM0.5 86.5H1C1 47.0116 33.0116 15 72.5 15V14.5V14C32.4594 14 0 46.4594 0 86.5H0.5Z" fill="#1C180D"/>
<path d="M180.5 14.5L185.409 17.5391L185.586 11.7684L180.5 14.5ZM185.004 14.6385L184.973 15.1376C222.377 17.4461 252 48.5138 252 86.5H252.5H253C253 47.9822 222.963 16.4803 185.034 14.1395L185.004 14.6385ZM252.5 86.5H252C252 125.988 219.988 158 180.5 158V158.5V159C220.541 159 253 126.541 253 86.5H252.5Z" fill="#1C180D"/>
<path d="M126.75 194.5L123.863 199.5L129.637 199.5L126.75 194.5ZM126.75 199L126.25 199L126.25 266.5L126.75 266.5L127.25 266.5L127.25 199L126.75 199Z" fill="#1C180D"/>
<path d="M118.138 163.68C115.948 163.68 114.373 162.585 114.253 160.485H115.603C115.678 161.955 116.833 162.57 118.168 162.57C119.833 162.57 120.763 161.85 120.763 160.71C120.763 159.81 120.268 159.36 119.278 159.09L116.983 158.475C115.588 158.1 114.658 157.305 114.658 155.655C114.658 153.96 116.143 152.79 118.198 152.79C120.268 152.79 121.768 154.005 121.813 155.955H120.478C120.388 154.62 119.428 153.9 118.198 153.9C116.878 153.9 115.933 154.65 115.933 155.67C115.933 156.555 116.338 157.035 117.403 157.32L119.713 157.935C121.123 158.31 122.038 159.075 122.038 160.65C122.038 162.525 120.628 163.68 118.138 163.68ZM124.647 163.5V155.88H125.892V163.5H124.647ZM124.512 154.32V152.805H126.027V154.32H124.512ZM131.259 163.635C129.774 163.635 129.099 162.765 129.099 161.43V156.96H128.139V155.955H128.259C128.964 155.955 129.249 155.76 129.249 155.025V153.87H130.344V155.88H132.459V156.96H130.344V161.19C130.344 162.03 130.629 162.51 131.394 162.51C131.709 162.51 131.979 162.465 132.324 162.285L132.564 163.32C132.189 163.5 131.679 163.635 131.259 163.635ZM137.464 163.635C135.484 163.635 134.119 162.3 134.119 159.69C134.119 157.155 135.409 155.745 137.494 155.745C139.444 155.745 140.689 156.96 140.689 159.51C140.689 159.66 140.689 159.825 140.674 159.99H135.394C135.409 161.385 135.994 162.57 137.464 162.57C138.604 162.57 139.174 161.985 139.279 161.34H140.554C140.419 162.855 139.144 163.635 137.464 163.635ZM139.204 159C139.309 159 139.399 158.94 139.399 158.79C139.399 157.485 138.649 156.81 137.494 156.81C136.249 156.81 135.559 157.575 135.424 159H139.204Z" fill="#1C180D"/>
<path d="M98.7536 89V78.47H102.189C104.529 78.47 105.939 79.46 105.939 81.68C105.939 83.81 104.469 84.86 102.189 84.86H100.044V89H98.7536ZM102.189 83.72C103.839 83.72 104.544 83.015 104.544 81.68C104.544 80.285 103.824 79.61 102.189 79.61H100.044V83.72H102.189ZM109.985 89.135C108.62 89.135 107.585 88.415 107.585 87.005C107.585 85.505 108.665 84.845 110.27 84.545L111.29 84.365C112.19 84.2 112.49 84.05 112.49 83.6C112.49 82.745 111.815 82.28 110.78 82.28C109.895 82.28 109.115 82.625 109.1 83.57H107.825C107.9 81.98 109.13 81.245 110.78 81.245C112.49 81.245 113.735 81.995 113.735 83.81V89H112.565V88.145C112.565 88.04 112.505 87.995 112.445 87.995C112.385 87.995 112.34 88.025 112.25 88.13C111.725 88.73 110.915 89.135 109.985 89.135ZM110.165 88.1C111.425 88.1 112.55 87.305 112.55 85.91V84.98C112.355 85.19 111.935 85.265 111.335 85.37L110.63 85.505C109.31 85.76 108.845 86.21 108.845 86.975C108.845 87.635 109.295 88.1 110.165 88.1ZM118.954 89.135C117.469 89.135 116.794 88.265 116.794 86.93V82.46H115.834V81.455H115.954C116.659 81.455 116.944 81.26 116.944 80.525V79.37H118.039V81.38H120.154V82.46H118.039V86.69C118.039 87.53 118.324 88.01 119.089 88.01C119.404 88.01 119.674 87.965 120.019 87.785L120.259 88.82C119.884 89 119.374 89.135 118.954 89.135ZM122.485 89V81.38H123.73V89H122.485ZM122.35 79.82V78.305H123.865V79.82H122.35ZM129.622 89.135C127.642 89.135 126.277 87.8 126.277 85.19C126.277 82.655 127.567 81.245 129.652 81.245C131.602 81.245 132.847 82.46 132.847 85.01C132.847 85.16 132.847 85.325 132.832 85.49H127.552C127.567 86.885 128.152 88.07 129.622 88.07C130.762 88.07 131.332 87.485 131.437 86.84H132.712C132.577 88.355 131.302 89.135 129.622 89.135ZM131.362 84.5C131.467 84.5 131.557 84.44 131.557 84.29C131.557 82.985 130.807 82.31 129.652 82.31C128.407 82.31 127.717 83.075 127.582 84.5H131.362ZM135.44 89V81.38H136.61V82.355C136.61 82.445 136.655 82.505 136.73 82.505C136.805 82.505 136.85 82.445 136.895 82.385C137.375 81.74 138.02 81.245 139.07 81.245C140.72 81.245 141.545 82.295 141.545 84.065V89H140.3V84.305C140.3 82.955 139.745 82.34 138.62 82.34C137.48 82.34 136.685 83.3 136.685 84.725V89H135.44ZM146.799 89.135C145.314 89.135 144.639 88.265 144.639 86.93V82.46H143.679V81.455H143.799C144.504 81.455 144.789 81.26 144.789 80.525V79.37H145.884V81.38H147.999V82.46H145.884V86.69C145.884 87.53 146.169 88.01 146.934 88.01C147.249 88.01 147.519 87.965 147.864 87.785L148.104 88.82C147.729 89 147.219 89.135 146.799 89.135ZM152.85 89.135C150.9 89.135 149.895 88.205 149.895 86.84H151.155C151.17 87.53 151.725 88.13 152.88 88.13C153.99 88.13 154.545 87.59 154.545 86.84C154.545 86.24 154.14 85.94 153.375 85.79L152.055 85.535C150.75 85.28 150.03 84.605 150.03 83.525C150.03 82.13 151.215 81.245 152.79 81.245C154.335 81.245 155.61 81.905 155.61 83.42H154.395C154.395 82.685 153.705 82.25 152.805 82.25C151.89 82.25 151.245 82.715 151.245 83.435C151.245 83.915 151.575 84.275 152.43 84.44L153.75 84.695C155.055 84.95 155.76 85.505 155.76 86.735C155.76 88.16 154.695 89.135 152.85 89.135Z" fill="#1C180D"/>
<path d="M82.9058 300.5V289.97H86.3408C88.6808 289.97 90.0908 290.96 90.0908 293.18C90.0908 295.31 88.6208 296.36 86.3408 296.36H84.1958V300.5H82.9058ZM86.3408 295.22C87.9908 295.22 88.6958 294.515 88.6958 293.18C88.6958 291.785 87.9758 291.11 86.3408 291.11H84.1958V295.22H86.3408ZM92.2457 300.5V289.61H93.4907V293.78C93.4907 293.87 93.5357 293.93 93.6107 293.93C93.6857 293.93 93.7307 293.87 93.7757 293.81C94.1807 293.255 94.8257 292.745 95.8757 292.745C97.5257 292.745 98.3507 293.795 98.3507 295.565V300.5H97.1057V295.805C97.1057 294.455 96.5507 293.84 95.4257 293.84C94.2857 293.84 93.4907 294.8 93.4907 296.225V300.5H92.2457ZM101.309 300.5V292.88H102.554V300.5H101.309ZM101.174 291.32V289.805H102.689V291.32H101.174ZM105.626 300.5V289.61H106.871V300.5H105.626ZM111.923 300.635C110.558 300.635 109.523 299.915 109.523 298.505C109.523 297.005 110.603 296.345 112.208 296.045L113.228 295.865C114.128 295.7 114.428 295.55 114.428 295.1C114.428 294.245 113.753 293.78 112.718 293.78C111.833 293.78 111.053 294.125 111.038 295.07H109.763C109.838 293.48 111.068 292.745 112.718 292.745C114.428 292.745 115.673 293.495 115.673 295.31V300.5H114.503V299.645C114.503 299.54 114.443 299.495 114.383 299.495C114.323 299.495 114.278 299.525 114.188 299.63C113.663 300.23 112.853 300.635 111.923 300.635ZM112.103 299.6C113.363 299.6 114.488 298.805 114.488 297.41V296.48C114.293 296.69 113.873 296.765 113.273 296.87L112.568 297.005C111.248 297.26 110.783 297.71 110.783 298.475C110.783 299.135 111.233 299.6 112.103 299.6ZM118.596 300.5V292.88H119.766V293.855C119.766 293.945 119.811 294.005 119.886 294.005C119.961 294.005 120.006 293.945 120.051 293.885C120.531 293.24 121.176 292.745 122.226 292.745C123.876 292.745 124.701 293.795 124.701 295.565V300.5H123.456V295.805C123.456 294.455 122.901 293.84 121.776 293.84C120.636 293.84 119.841 294.8 119.841 296.225V300.5H118.596ZM129.955 300.635C128.47 300.635 127.795 299.765 127.795 298.43V293.96H126.835V292.955H126.955C127.66 292.955 127.945 292.76 127.945 292.025V290.87H129.04V292.88H131.155V293.96H129.04V298.19C129.04 299.03 129.325 299.51 130.09 299.51C130.405 299.51 130.675 299.465 131.02 299.285L131.26 300.32C130.885 300.5 130.375 300.635 129.955 300.635ZM133.486 300.5V289.61H134.731V293.78C134.731 293.87 134.776 293.93 134.851 293.93C134.926 293.93 134.971 293.87 135.016 293.81C135.421 293.255 136.066 292.745 137.116 292.745C138.766 292.745 139.591 293.795 139.591 295.565V300.5H138.346V295.805C138.346 294.455 137.791 293.84 136.666 293.84C135.526 293.84 134.731 294.8 134.731 296.225V300.5H133.486ZM142.549 300.5V292.88H143.719V293.96C143.719 294.05 143.764 294.11 143.839 294.11C143.914 294.11 143.944 294.065 144.004 293.975C144.469 293.255 145.204 292.745 145.969 292.745C146.224 292.745 146.434 292.775 146.629 292.82L146.599 294.08C146.374 294.035 146.014 294.02 145.834 294.02C144.649 294.02 143.794 294.8 143.794 296.24V300.5H142.549ZM151.475 300.635C149.36 300.635 148.07 299.21 148.07 296.69C148.07 294.17 149.36 292.745 151.475 292.745C153.59 292.745 154.88 294.185 154.88 296.69C154.88 299.21 153.59 300.635 151.475 300.635ZM151.475 299.57C152.975 299.57 153.56 298.37 153.56 296.69C153.56 295.01 152.975 293.81 151.475 293.81C149.975 293.81 149.39 295.01 149.39 296.69C149.39 298.37 149.975 299.57 151.475 299.57ZM157.438 303.05V292.88H158.608V293.66C158.608 293.75 158.653 293.81 158.728 293.81C158.803 293.81 158.833 293.765 158.893 293.705C159.478 293.045 160.183 292.745 161.083 292.745C162.643 292.745 164.098 293.96 164.098 296.69C164.098 299.42 162.643 300.635 161.083 300.635C160.138 300.635 159.508 300.32 158.968 299.75C158.908 299.69 158.878 299.645 158.803 299.645C158.728 299.645 158.683 299.705 158.683 299.795V303.05H157.438ZM160.693 299.57C162.193 299.57 162.778 298.37 162.778 296.69C162.778 295.01 162.193 293.81 160.693 293.81C159.193 293.81 158.608 295.01 158.608 296.69C158.608 298.37 159.193 299.57 160.693 299.57ZM167.159 303.185C166.814 303.185 166.349 303.095 166.079 302.99L166.379 301.97C166.634 302.06 166.814 302.12 167.174 302.12C167.744 302.12 168.209 301.835 168.434 301.115L168.539 300.785L165.674 292.88H166.994L169.019 298.76C169.049 298.835 169.094 298.865 169.154 298.865C169.214 298.865 169.259 298.835 169.289 298.76L171.344 292.88H172.619L169.514 301.37C169.064 302.6 168.419 303.185 167.159 303.185Z" fill="#1C180D"/>
<path d="M101.845 14.18C99.6554 14.18 98.0804 13.085 97.9604 10.985H99.3104C99.3854 12.455 100.54 13.07 101.875 13.07C103.54 13.07 104.47 12.35 104.47 11.21C104.47 10.31 103.975 9.86 102.985 9.59L100.69 8.975C99.2954 8.6 98.3654 7.805 98.3654 6.155C98.3654 4.46 99.8504 3.29 101.905 3.29C103.975 3.29 105.475 4.505 105.52 6.455H104.185C104.095 5.12 103.135 4.4 101.905 4.4C100.585 4.4 99.6404 5.15 99.6404 6.17C99.6404 7.055 100.045 7.535 101.11 7.82L103.42 8.435C104.83 8.81 105.745 9.575 105.745 11.15C105.745 13.025 104.335 14.18 101.845 14.18ZM108.355 16.55V6.38H109.525V7.16C109.525 7.25 109.57 7.31 109.645 7.31C109.72 7.31 109.75 7.265 109.81 7.205C110.395 6.545 111.1 6.245 112 6.245C113.56 6.245 115.015 7.46 115.015 10.19C115.015 12.92 113.56 14.135 112 14.135C111.055 14.135 110.425 13.82 109.885 13.25C109.825 13.19 109.795 13.145 109.72 13.145C109.645 13.145 109.6 13.205 109.6 13.295V16.55H108.355ZM111.61 13.07C113.11 13.07 113.695 11.87 113.695 10.19C113.695 8.51 113.11 7.31 111.61 7.31C110.11 7.31 109.525 8.51 109.525 10.19C109.525 11.87 110.11 13.07 111.61 13.07ZM120.503 14.135C118.388 14.135 117.098 12.71 117.098 10.19C117.098 7.67 118.388 6.245 120.503 6.245C122.618 6.245 123.908 7.685 123.908 10.19C123.908 12.71 122.618 14.135 120.503 14.135ZM120.503 13.07C122.003 13.07 122.588 11.87 122.588 10.19C122.588 8.51 122.003 7.31 120.503 7.31C119.003 7.31 118.418 8.51 118.418 10.19C118.418 11.87 119.003 13.07 120.503 13.07ZM126.467 14V6.38H127.637V7.355C127.637 7.445 127.682 7.505 127.757 7.505C127.832 7.505 127.877 7.445 127.922 7.385C128.402 6.74 129.047 6.245 130.097 6.245C131.747 6.245 132.572 7.295 132.572 9.065V14H131.327V9.305C131.327 7.955 130.772 7.34 129.647 7.34C128.507 7.34 127.712 8.3 127.712 9.725V14H126.467ZM138.05 14.135C136.1 14.135 135.095 13.205 135.095 11.84H136.355C136.37 12.53 136.925 13.13 138.08 13.13C139.19 13.13 139.745 12.59 139.745 11.84C139.745 11.24 139.34 10.94 138.575 10.79L137.255 10.535C135.95 10.28 135.23 9.605 135.23 8.525C135.23 7.13 136.415 6.245 137.99 6.245C139.535 6.245 140.81 6.905 140.81 8.42H139.595C139.595 7.685 138.905 7.25 138.005 7.25C137.09 7.25 136.445 7.715 136.445 8.435C136.445 8.915 136.775 9.275 137.63 9.44L138.95 9.695C140.255 9.95 140.96 10.505 140.96 11.735C140.96 13.16 139.895 14.135 138.05 14.135ZM146.492 14.135C144.377 14.135 143.087 12.71 143.087 10.19C143.087 7.67 144.377 6.245 146.492 6.245C148.607 6.245 149.897 7.685 149.897 10.19C149.897 12.71 148.607 14.135 146.492 14.135ZM146.492 13.07C147.992 13.07 148.577 11.87 148.577 10.19C148.577 8.51 147.992 7.31 146.492 7.31C144.992 7.31 144.407 8.51 144.407 10.19C144.407 11.87 144.992 13.07 146.492 13.07ZM152.456 14V6.38H153.626V7.46C153.626 7.55 153.671 7.61 153.746 7.61C153.821 7.61 153.851 7.565 153.911 7.475C154.376 6.755 155.111 6.245 155.876 6.245C156.131 6.245 156.341 6.275 156.536 6.32L156.506 7.58C156.281 7.535 155.921 7.52 155.741 7.52C154.556 7.52 153.701 8.3 153.701 9.74V14H152.456Z" fill="#1C180D"/>
</svg>
